<svg width="22" height="22" viewBox="0 0 22 22" fill="none" xmlns="http://www.w3.org/2000/svg">
<path fill-rule="evenodd" clip-rule="evenodd" d="M0 5.15625C0 4.88275 0.108649 4.62044 0.302046 4.42705C0.495443 4.23365 0.757745 4.125 1.03125 4.125H20.9688C21.2423 4.125 21.5046 4.23365 21.698 4.42705C21.8914 4.62044 22 4.88275 22 5.15625C22 5.42975 21.8914 5.69206 21.698 5.88545C21.5046 6.07885 21.2423 6.1875 20.9688 6.1875H1.03125C0.757745 6.1875 0.495443 6.07885 0.302046 5.88545C0.108649 5.69206 0 5.42975 0 5.15625ZM0 11C0 10.7265 0.108649 10.4642 0.302046 10.2708C0.495443 10.0774 0.757745 9.96875 1.03125 9.96875H20.9688C21.2423 9.96875 21.5046 10.0774 21.698 10.2708C21.8914 10.4642 22 10.7265 22 11C22 11.2735 21.8914 11.5358 21.698 11.7292C21.5046 11.9226 21.2423 12.0312 20.9688 12.0312H1.03125C0.757745 12.0312 0.495443 11.9226 0.302046 11.7292C0.108649 11.5358 0 11.2735 0 11ZM1.03125 15.8125C0.757745 15.8125 0.495443 15.9211 0.302046 16.1145C0.108649 16.3079 0 16.5702 0 16.8438C0 17.1173 0.108649 17.3796 0.302046 17.573C0.495443 17.7664 0.757745 17.875 1.03125 17.875H20.9688C21.2423 17.875 21.5046 17.7664 21.698 17.573C21.8914 17.3796 22 17.1173 22 16.8438C22 16.5702 21.8914 16.3079 21.698 16.1145C21.5046 15.9211 21.2423 15.8125 20.9688 15.8125H1.03125Z" fill="black"/>
</svg>
