<svg width="22" height="29" viewBox="0 0 22 29" fill="none" xmlns="http://www.w3.org/2000/svg">
<path d="M17.1111 7.25V6.04167C17.1111 2.70485 14.3752 0 11 0C7.62483 0 4.88889 2.70485 4.88889 6.04167V7.25H0V25.375C0 27.3778 1.64083 29 3.66667 29H18.3333C20.3592 29 22 27.3778 22 25.375V7.25H17.1111ZM7.33333 6.04167C7.33333 4.03976 8.97508 2.41667 11 2.41667C13.0249 2.41667 14.6667 4.03976 14.6667 6.04167V7.25H7.33333V6.04167ZM19.5556 25.375C19.5556 26.0426 19.0086 26.5833 18.3333 26.5833H3.66667C2.99139 26.5833 2.44444 26.0426 2.44444 25.375V9.66667H19.5556V25.375Z" fill="white"/>
</svg>
